<?xml version="1.0" encoding="UTF-8" standalone="no"?><!DOCTYPE svg PUBLIC "-//W3C//DTD SVG 1.1//EN" "http://www.w3.org/Graphics/SVG/1.1/DTD/svg11.dtd"><svg width="100%" height="100%" viewBox="0 0 593 593" version="1.1" xmlns="http://www.w3.org/2000/svg" xmlns:xlink="http://www.w3.org/1999/xlink" xml:space="preserve" xmlns:serif="http://www.serif.com/" style="fill-rule:evenodd;clip-rule:evenodd;stroke-linejoin:round;stroke-miterlimit:2;"><g id="Fondo"><path d="M592.499,22.875l0,569.624c-1.611,0.867 -1.753,0 -22.874,0l-569.625,0c-0.697,-1.294 -0,-1.409 0,-18.374l0,-574.125c1.611,-0.868 1.753,0 22.875,0l569.624,0c0.867,1.611 0,1.753 0,22.875Z" style="fill:#ebe8d7;"/><path d="M473.749,280.35c-7.355,3.492 -9.068,0.209 -11.702,4.051c-14.031,20.465 -40.448,23.168 -62.478,8.148c-3.221,-2.196 -2.039,1.123 -2.007,1.832c1.353,30.047 2.97,42.185 -11.859,51.471c-11.445,7.166 -36.7,4.173 -33.327,7.57c37.229,37.501 11.75,78.622 12.254,80.55c0.005,0.018 9.939,6.166 8.005,12.723c-2.887,9.788 16.952,-12.104 40.042,1.015c16.482,9.365 28.813,53.472 -39.561,50.157c-11.357,-0.551 -60.749,-7.346 -59.913,-30.242c0.5,-13.7 9.019,-16.397 8.937,-18.752c-0.022,-0.631 -1.263,-4.75 1.781,-9.555c4.777,-7.542 16.676,-7.645 18.229,-10.095c18.444,-29.1 9.31,-52.278 -16.441,-73.125c-2.401,-1.944 -2.781,-1.488 -27.605,1.112c-2.763,0.289 -34.343,3.596 -34.539,3.64c-3.729,0.831 4.288,12.781 -3.308,45.188c-5.084,21.688 -14.118,31.353 -12.078,33.539c10.808,11.584 -0.314,19.232 0.619,21.989c3.593,10.62 3.883,10.565 4.54,10.952c0.244,0.144 11.012,4.488 14.097,16.089c10.298,38.722 -76.75,50.786 -81.874,-0.728c-1.284,-12.905 5.234,-31.512 16.816,-40.955c2.294,-1.87 2.478,-1.829 3.049,-4.73c2.798,-14.198 21.502,-12.058 21.955,-12.407c4.307,-3.316 19.115,-35.645 13.764,-64.917c-0.67,-3.664 -2.595,-2.253 -23.248,-3.976c-11.771,-0.982 7.845,4.504 7.383,20.476c-0.344,11.891 -9.92,15.538 -10.259,18.021c-2.784,20.408 -24.31,18.685 -26.318,20.323c-1.535,1.252 -8.134,15.65 -33.759,7.933c-20.381,-6.138 -37.414,-25.568 -30.515,-36.333c0.356,-0.556 3.123,-4.874 0.824,-8.208c-2.124,-3.08 -13.171,-1.692 -10.403,-22.771c0.627,-4.774 -28.817,-18.685 -21.185,-55.387c7.762,-37.328 48.16,-52.222 48.596,-54.043c0.646,-2.692 -3.274,-50.926 -1.318,-55.387c2.616,-5.968 9.896,-7.87 10.341,-12.874c0.345,-3.879 -0.461,-16.951 11.241,-26.061c8.37,-6.516 20.523,-2.961 20.412,-6.952c-0.06,-2.143 -1.692,-9.525 3.564,-11.719c2.078,-0.867 2.709,-0.429 2.68,-1.8c-0.124,-5.993 -2.501,-10.406 7.689,-12.013c26.323,-4.153 27.741,0.863 28.361,3.059c0.631,2.233 -0.147,6.86 1.682,7.343c11.257,2.975 3.511,10.617 7.354,11.711c0.426,0.121 6.328,-0.229 6.801,-0.486c1.599,-0.867 -0.462,-2.186 10.261,-20.284c5.065,-8.549 -4.552,-16.637 13.792,-22.327c4.927,-1.529 -4.432,-10.654 17.415,-22.968c17.222,-9.708 14,-15.187 32.754,-21.515c8.853,-2.987 34.479,-15.523 57.206,12.902c15.283,19.113 14.813,51.673 -4.931,70.302c-1.463,1.38 -2.056,1.214 -1.637,2.212c0.593,1.413 25.968,-3.029 27.589,28.068c1.038,19.906 2.7,87.34 3.773,89.172c6.696,11.431 31.811,28.156 42.347,14.166c2.872,-3.813 -8.099,-7.969 -5.867,-20.848c0.965,-5.567 5.201,-7.752 4.665,-9.745c-4.616,-17.164 -0.4,-17.175 2.669,-30.048c3.917,-16.433 -15.392,-32.528 0.484,-44.661c10.999,-8.405 37.272,0.471 27.219,33.381c-0.369,1.207 -2.579,3.775 1.81,3.056c6.62,-1.084 38.524,-1.76 32.858,24.002c-0.609,2.768 8.62,10.928 2.869,24.656c-4.959,11.838 -22.824,17.448 -25.196,18.193c-2.62,0.823 -1.118,2.688 -7.402,6.91Z" style="fill:#273546;"/><path d="M302.594,348.073c-43.979,4.407 -47.416,6.462 -56.693,-2.967c-7.977,-8.108 -5.923,-15.934 -8.489,-82.232c-3.285,-84.879 -3.816,-85.025 -1.933,-92.154c5.266,-19.937 24.851,-16.702 37.145,-16.752c92.668,-0.378 96.367,-2.647 104.041,2.709c10.473,7.309 8.773,15.469 10.274,55.184c4.104,108.555 4.297,110.747 1.37,117.099c-5.772,12.525 -14.353,11.782 -53.416,15.827c-7.136,0.739 -7.068,0.648 -14.261,1.398c-6.855,0.714 -8.165,0.757 -18.038,1.889Z" style="fill:#efead7;"/><path d="M250.726,160.571c0.466,-0.219 3.438,-1.614 6.159,-1.852c7.619,-0.667 91.758,-0.743 99.737,-0.75c25.944,-0.023 24.806,14.091 25.354,33.656c0.842,30.041 1.175,29.986 2.117,60.004c1.824,58.13 2.622,65.95 1.341,70.582c-4.321,15.63 -21.85,14.908 -23.536,15.094c-13.454,1.479 -94.24,9.63 -94.519,9.652c-16.065,1.26 -21.533,-11.205 -22.638,-16.557c-0.73,-3.539 -4.085,-104.9 -4.386,-114.024c-1.455,-43.959 -3.708,-47.341 10.372,-55.805Z" style="fill:#263444;"/><path d="M249.311,166.799c3.773,-2.771 3.676,-3.04 8.291,-3.82c1.452,-0.245 77.272,-0.497 78.774,-0.493c22.976,0.071 36.158,-3.168 40.282,11.201c1.263,4.4 5.162,129.284 5.378,140.942c0.152,8.192 -4.241,14.905 -11.251,16.928c-6.604,1.906 -6.71,1.338 -85.41,9.316c-22.941,2.326 -36.286,5.819 -36.927,-18.746c-1.161,-44.452 -2.577,-65.813 -3.777,-106.493c-1.142,-38.734 -3.614,-40.362 4.64,-48.835Z" style="fill:#cfa352;"/><path d="M367.042,136.048c-1.177,1.144 -12.476,15.154 -32.195,13.099c-42.914,-4.473 -52.002,-72.204 -10.472,-88.773c39.319,-15.687 73.406,39.231 42.667,75.674Z" style="fill:#ede9d6;"/><path d="M311.035,130.008c-2.042,-2.881 -7.979,-10.374 -9.097,-23.138c-3.495,-39.922 44.489,-62.383 65.765,-26.894c24.843,41.437 -23.694,90.974 -56.669,50.033Z" style="fill:#273547;"/><path d="M135.599,396.226c-3.101,-5.447 -3.296,-5.307 -5.102,-11.234c-4.893,-16.06 3.835,-31.793 -2.178,-21.118c-5.425,9.63 -2.555,15.494 -5.581,12.127c-11.875,-13.213 6.015,-40.68 21.598,-36.477c6.56,1.769 -2.054,2.669 -6.901,11.017c-3.004,5.173 1.74,1.181 1.868,1.066c9.655,-8.77 30.496,-13.631 27.951,-8.672c-0.173,0.336 -0.273,0.232 -2.472,4.027c-6.97,12.03 11.897,28.034 26.16,30.326c22.013,3.538 18.158,-13.79 22.163,-10.545c12.788,10.36 9.319,29.226 -12.467,31.311c-7.717,0.738 -22.818,-4.209 -24.734,-4.837c-2.61,-0.855 -1.372,2.183 4.605,5.149c21.426,10.633 32.101,-1.433 28.813,5.375c-7.259,15.033 -27.701,10.969 -39.327,5.121c-10.798,-5.432 3.284,6.795 9.73,8.2c0.177,0.039 7.676,1.674 0.593,2.191c-27.442,2.005 -42.813,-20.497 -44.718,-23.027Z" style="fill:#ede9d8;"/><path d="M363.157,240.29c-1.345,3.409 -2.415,5.292 -0.649,5.689c0.015,0.003 7.984,1.13 7.557,2.626c-0.392,1.372 -7.55,0.043 -7.427,1.523c0.095,1.15 4.64,16.653 -9.66,26.387c-15.777,10.74 -37.808,-0.491 -38.307,-9.887c-0.214,-4.038 2.936,3.788 12.753,7.916c4.22,1.775 -0.081,-1.483 -2.786,-5.111c-4.731,-6.347 -4.828,-15.813 -3.733,-19.237c0.691,-2.162 1.348,-2.419 0.411,-2.93c-0.594,-0.324 -4.392,3.442 -6.328,7.558c-2.843,6.042 -3.421,-3.309 3.46,-9.87c5.137,-4.898 12.227,-8.644 11.967,-9.833c-0.08,-0.366 -4.634,-12.851 -3.711,-26.993c2.317,-35.517 30.624,-39.604 38.341,-5.299c4.87,21.649 -1.552,36.385 -1.886,37.461Z" style="fill:#283545;"/><path d="M486.893,233.281c-0.397,-1.098 -0.248,-1.253 -1.394,-1.627c-1.946,-0.635 -5.706,-1.155 -6.616,-1.174c-18.651,-0.389 -21.737,13.131 -24.46,9.643c-12.109,-15.512 6.708,-32.268 28.223,-29.149c23.968,3.475 14.527,20.51 16.665,23.26c12.962,16.669 -5.242,33.454 -21.931,35.429c-9.606,1.137 -22.153,-4.499 -16.321,-0.251c5.981,4.357 12.393,3.711 12.674,3.743c3.879,0.453 -6.273,7.808 -18.07,3.845c-25.006,-8.401 -16.794,-29.977 -13.902,-25.15c0.456,0.761 4.21,7.026 7.889,7.801c6.188,1.305 -14.966,-14.417 -6.536,-35.69c9.599,-24.22 -4.357,-30.216 -3.513,-41.352c1.34,-17.684 31.712,-14.263 25.906,15.039c-2.428,12.258 -4.04,11.557 -5.274,12.194c-19,9.819 -15.724,27.218 -8.296,34.217c2.983,2.811 1.893,3.332 1.436,6.064c-2.323,13.877 15.272,20.752 22.336,16.253c4.31,-2.745 4.282,-2.676 9.054,-4.529c0.384,-0.149 7.783,-3.023 2.453,-4.525c-8.936,-2.518 -12.885,6.856 -19.628,5.856c-16.233,-2.408 -14.845,-29.77 19.304,-29.899Z" style="fill:#ebe8d7;"/><path d="M241.809,464.298c2.105,-0.62 2.086,-0.639 2.273,-0.67c1.49,-0.247 2.967,5.004 3.104,5.49c0.462,1.643 -0.605,1.112 -2.286,0.648c-2.765,-0.762 -15.585,-2.395 -25.561,0.755c-4.867,1.536 -10.96,5.489 -11.241,6.089c-1.195,2.556 4.288,-0.049 5.374,-0.376c38.372,-11.572 54.23,11.056 49.09,18.183c-13.851,19.204 -56.051,18.84 -66.249,-1.387c-8.169,-16.202 -3.917,-27.337 5.464,-39.193c2.396,-3.028 3.31,-4.613 4.441,-2.145c3.699,8.069 13.003,10.002 10.394,7.585c-15.075,-13.967 -4.113,-23.845 4.246,-24.833c6.585,-0.779 1.079,4.407 0.841,4.735c-0.591,0.815 -5.096,7.028 3.613,12.047c11.197,6.452 16.469,-3.656 18.379,-6.634c3.443,-5.367 4.71,4.226 4.715,4.303c0.695,11.869 -15.06,13.565 -15.199,13.759c-0.409,0.569 -0.544,2.942 8.603,1.645Z" style="fill:#cda051;"/><path d="M362.496,456.101c1.094,-0.505 2.113,-1.163 3.206,-1.668c3.906,-1.804 -2.543,3.962 -3.55,12.413c-0.081,0.679 0.875,1.942 1.713,-0.091c0.695,-1.687 3.979,-9.654 16.91,-15.299c31.78,-13.876 42.841,14.925 39.421,20.574c-12.777,21.106 -88.883,13.77 -100.993,-5.951c-1.965,-3.2 1.861,-9.764 4.66,-11.59c1.184,-0.772 7.335,4.769 14.042,5.081c3.948,0.184 -1.374,-2.251 -1.58,-2.345c-14.426,-6.6 -11.112,-17.405 -0.605,-20.83c6.593,-2.149 -0.381,4.737 2.522,7.654c5.245,5.271 12.698,3.978 13.828,3.782c9.235,-1.602 7.619,-13.033 13.518,-7.911c9.252,8.033 -8.495,13.439 -13.887,20.399c-1.061,1.369 -1.071,3.178 0.434,2.078c4.889,-3.573 4.839,-3.539 10.362,-6.296Z" style="fill:#cca051;"/><path d="M153.439,270.656c8.061,-1.899 13.299,-2.51 16.373,-5.593c3.601,-3.611 4.242,-9.186 3.197,-12.728c-3.777,-12.804 -19.777,-5.253 -21.235,-4.763c-3.195,1.076 -2.581,-0.86 -2.702,-4.208c-1.393,-38.586 -1.474,-41.198 -1.437,-44.242c0.044,-3.649 3.563,-6.07 3.737,-3.814c0.038,0.496 -0.152,1.011 -0.024,1.491c0.424,1.587 6.919,-2.743 13.347,-4.962c5.968,-2.059 1.251,5.01 1.925,8.132c0.283,1.308 1.079,0.569 15.377,-6.587c3.585,-1.794 1.738,1.568 1.612,8.723c-0.036,2.057 1.03,1.142 2.845,0.159c7.219,-3.909 13.13,-6.776 14.286,-7.337c2.25,-1.091 1.522,4.713 1.663,8.648c0.125,3.476 10.8,-5.669 13.237,-5.732c6.246,-0.163 -10.377,9.363 -11.303,10.246c-1.337,1.276 2.592,77.303 2.912,105.778c0.026,2.334 -3.134,0.396 -3.552,-0.053c-0.853,-0.915 -3.045,-76.435 -4.137,-113.174c-0.081,-2.732 -1.73,-0.936 -12.276,4.793c-3.307,1.796 -1.837,2.934 -1.232,30.451c0.481,21.88 2.585,71.136 2.187,72.832c-0.414,1.759 -3.273,0.838 -3.408,0.717c-1.249,-1.116 -0.48,-1.369 -0.538,-4.557c-0.308,-17.047 -3.325,-91.362 -3.318,-106.474c0.001,-2.057 -1.196,-0.329 -10.216,4.003c-3.587,1.723 -3.541,2.206 -3.36,5.733c1.631,31.698 0.855,32.324 2.653,33.421c1.024,0.624 7.731,4.714 8.482,12.354c1.251,12.728 -9.057,15.694 -8.954,19.47c0.086,3.178 0.986,36.256 1.29,39.723c0.346,3.942 -0.777,3.689 -2.024,7.412c-0.911,2.718 -1.757,0.96 -1.758,0.805c-0.036,-3.785 -0.353,-36.939 -1.384,-47.298c-0.169,-1.701 -3.475,0.017 -7.135,0.497c-1.915,0.251 -1.872,-0.012 -3.731,0.168c-1.897,0.183 -0.471,10.171 0.25,40.684c0.121,5.131 -1.239,6.377 3.398,8.54c10.735,5.007 14.36,10.312 9.814,8.205c-7.821,-3.625 -13.187,-8.163 -12.505,-4.744c0.597,2.992 -3.526,0.028 -3.89,-0.766c-0.737,-1.608 -1.986,-46.904 -2.098,-50.984c-0.103,-3.736 0.515,-3.842 3.63,-4.966Z" style="fill:#ede9d6;"/><path d="M280.061,249.722c-16.535,-1.762 -16.616,1.713 -17.807,0.927c-0.631,-0.417 -1.266,-2.392 8.212,-4.693c2.137,-0.519 0.105,-3.048 -2.1,-10.147c-5.073,-16.34 -2.467,-35.026 3.091,-43.972c19.758,-31.804 56.905,15.618 30.743,63.698c-0.701,1.288 2.826,7.607 -0.823,4.739c-9.726,-7.645 -11.41,-7.899 -21.316,-10.551Z" style="fill:#283647;"/><path d="M340.773,283.533c17.206,-6.013 16.519,-8.042 18.079,-7.82c1.102,0.156 1.542,2.363 -11.155,8.314c-2.377,1.114 -3.653,6.577 -3.681,6.65c-8.692,22.626 -25.862,35.544 -42.156,30.747c-26.489,-7.798 -32.741,-43.317 -33.711,-47.306c-1.501,-6.173 -7.232,7.462 -8.671,5.717c-3.84,-4.66 7.997,-20.16 20.534,-14.491c6.296,2.846 -3.051,1.736 -6.623,3.554c-2.997,1.526 11.573,11.538 21.847,14.625c22.864,6.868 36.19,2.556 45.535,0.011Z" style="fill:#283545;"/><path d="M124.067,290.577c1.213,-1.356 9.743,-10.895 17.448,-14.591c2.429,-1.165 1.22,1.473 2.881,43.889c0.4,10.206 1.647,10.177 9.467,16.771c1.996,1.683 -1.24,2.881 -2.622,1.82c-8.65,-6.646 -13.822,-4.428 -22.525,0.321c-3.392,1.851 -12.87,-8.759 -14.414,-19.65c-2.196,-15.494 9.639,-28.394 9.765,-28.559Z" style="fill:#ece8d7;"/><path d="M191.652,157.381c36.504,-3.615 36.461,-3.96 37.469,-4.128c2.81,-0.47 0.258,2.331 0.124,2.478c-2.949,3.237 -4.017,6.479 -4.029,6.495c-1.559,2.081 -1.22,-0.457 -2.005,-2.899c-0.323,-1.005 -0.836,-0.466 -34.617,2.711c-11.567,1.088 -25.716,-0.806 -26.491,17.57c-0.213,5.049 3.442,3.912 13.743,4.785c40.575,3.439 42.866,2.392 47.369,11.693c1.442,2.978 1.308,3.092 2.36,41.284c2.168,78.651 4.459,96.688 -0.72,89.84c-1.138,-1.505 -4.244,-126.245 -4.794,-128.068c-3.175,-10.518 -14.51,-7.288 -58.467,-12.506c-3.504,-0.416 -3.54,-1.064 -3.501,-3.257c0.466,-25.924 14.683,-24.086 33.557,-25.998Z" style="fill:#eee9d7;"/><path d="M358.444,252.31c5.095,28.168 -31.899,31.529 -34.886,6.073c-2.637,-22.476 28.433,-29.957 34.886,-6.073Z" style="fill:#cea251;"/><path d="M192.484,339.17c-1.202,-0.72 -9.343,-5.599 -13.552,-11.09c-0.556,-0.725 -5.53,-7.213 -2.837,-11.056c9.352,-13.347 60.335,14.402 50.472,25.84c-7.711,8.943 -31.61,-2.509 -34.083,-3.694Z" style="fill:#eeead8;"/><path d="M295.13,189.369c13.901,11.493 15.247,44.693 4.192,62.769c-1.165,1.904 -1.447,-0.68 -10.969,-4.21c-2.702,-1.002 1.438,-3.83 2.861,-20.314c0.343,-3.975 -1.829,-3.93 -8.061,-5.348c-2.529,-0.575 -3.391,-0.074 -3.074,-1.413c0.166,-0.703 10.395,-4.793 10.36,-6.73c-0.054,-3.062 -3.744,-17.965 -9.777,-22.226c-0.864,-0.61 -4.42,-1.648 0.211,-4.025c8.086,-4.15 13.318,0.892 14.257,1.498Z" style="fill:#eeead8;"/><path d="M169.165,357.352c-0.671,-1.326 -1.837,-2.988 -1.076,-5.324c0.642,-1.972 6.204,-14.178 7.599,-13.049c14.844,12 14.782,13 34.745,16.749c1.203,0.226 0.859,1.049 -5.548,14.255c-2.271,4.681 -22.833,6.999 -35.72,-12.631Z" style="fill:#cda153;"/><path d="M343.312,123.494c11.085,-18.788 0.484,-35.233 0.466,-35.361c-1.063,-7.214 15.898,17.018 4.348,35.889c-5.717,9.342 6.353,-1.822 8.18,-14.2c2.369,-16.05 -4.754,-24.357 -4.844,-25.451c-0.477,-5.801 15.065,16.861 7.384,36.745c-5.027,13.014 4.288,-1.912 5.658,-9.819c2.91,-16.795 -4.208,-28.027 -4.21,-28.428c-0.022,-4.368 10.431,10.872 8.44,27.02c-4.808,38.98 -42.602,31.612 -42.22,27.7c0.25,-2.557 5.792,1.116 16.799,-14.094Z" style="fill:#ede8d6;"/><path d="M324.496,90.144c19.175,13.144 5.448,39.454 -11.307,33.769c-4.847,-1.645 -16.422,-36.823 6.639,-35.42c1.745,0.106 4.318,1.465 4.669,1.65Z" style="fill:#cea254;"/><path d="M361.576,229.075c-2.249,12.238 -3.357,12.592 -4.16,11.972c-0.187,-0.144 -1.97,-2.56 -6.105,-5.06c-0.757,-0.458 -3.142,-1.385 -2.995,-2.361c0.422,-2.801 0.712,-2.686 1.611,-8.992c0.574,-4.025 2.274,-5.373 -1.586,-6.664c-5.329,-1.782 -10.544,-1.869 -7.264,-3.515c7.023,-3.524 8.758,-4.138 8.309,-6.387c-4.25,-21.284 -11.243,-19.16 -10.862,-21.72c0.258,-1.732 17.469,-10.909 22.78,20.245c1.731,10.153 0.483,20.696 0.272,22.483Z" style="fill:#ece8d6;"/><path d="M164.183,220.856c0.565,16.61 1.07,19.263 -0.325,19.413c-4.94,0.532 -4.875,0.59 -9.705,1.959c-2.228,0.632 -0.953,-1.327 -2.237,-28.855c-0.375,-8.051 -1.009,-12.44 0.543,-13.092c10.588,-4.447 10.877,-4.599 11.138,-4.057c0.067,0.139 -0.115,3.406 0.016,8.156c0.102,3.725 0.28,5.831 0.57,16.476Z" style="fill:#273649;"/><path d="M395.654,488.124c1.668,-0.374 15.357,-3.445 20.158,-7.104c0.153,-0.117 5.646,-4.304 2.404,0.144c-17.233,23.641 -89.214,9.849 -99.992,-8.234c-3.639,-6.106 2.096,0.402 8.227,3.994c27.866,16.328 63.637,11.891 69.203,11.2Z" style="fill:#cda355;"/><path d="M298.024,302.762c5.231,4.296 10.772,11.591 8.465,5.075c-0.383,-1.081 -2.492,-4.9 -0.12,-4.634c9.213,1.033 17.645,9.01 14.892,11.277c-0.08,0.065 -16.519,10.466 -32.62,-6.109c-7.523,-7.744 -6.258,-8.988 -5.427,-9.184c7.035,-1.653 13.798,2.894 14.81,3.574Z" style="fill:#cda252;"/><path d="M223.919,147.69c-20.144,2.27 -34.944,4.925 -35.383,1.95c-1.167,-7.904 1.254,-7.779 2.392,-7.962c2.863,-0.458 34.445,-4.084 36.592,-1.71c0.633,0.699 1.995,6.946 -0.656,7.346c-0.978,0.148 -1.966,0.228 -2.945,0.376Z" style="fill:#e7e4d4;"/><path d="M195.506,335.405c-6.527,-4.513 -6.6,-5.849 -3.543,-13.136c3.265,-7.784 24.118,0.283 21.574,8.911c-3.707,12.574 -14.024,6.302 -18.031,4.225Z" style="fill:#2a3849;"/><path d="M196.07,499.168c0.672,0.783 12.291,18.118 44.328,12.857c9.941,-1.633 18.969,-9.27 20.368,-10.453c5.263,-4.453 -2.855,17.491 -36.124,16.038c-28.215,-1.232 -33.869,-24.06 -34.721,-27.499c-0.029,-0.116 -0.475,-6.085 1.161,-0.945c2.183,6.857 4.315,9.007 4.989,10.002Z" style="fill:#cca255;"/><path d="M275.154,112.854c2.194,19.515 12.93,13.223 15.875,17.562c1.106,1.629 4.516,6.293 2.61,5.861c-1.797,-0.408 -12.996,-4.802 -16.263,-7.923c-1.369,-1.308 -7.713,-7.367 -5.623,-22.995c1.632,-12.207 6.256,-14.907 14.41,-20.919c2.051,-1.512 2.113,-0.232 2.053,-0.079c-3.085,7.858 -3.838,8.329 -4.505,8.747c-8.81,5.513 -9.035,6.635 -8.556,19.745Z" style="fill:#efead8;"/><path d="M302.63,71.625c-5.512,7.687 -7.919,11.149 -9.92,23.972c-2.083,13.352 2.109,32.371 13.174,43.437c5.667,5.667 -21.742,-7.562 -17.19,-42.604c1.693,-13.034 12.334,-26.078 13.354,-25.14c0.165,0.152 0.417,0.184 0.582,0.336Z" style="fill:#ebe8d7;"/><path d="M266.807,332.8c-10.907,10.055 -20.865,-9.512 -9.18,-13.67c7.342,-2.612 16.125,5.314 9.18,13.67Z" style="fill:#2a3445;"/><path d="M320.589,334.061c-26.247,12.216 -42.55,-18.124 -34.313,-10.675c16.159,14.614 36.901,7.719 44.095,-0.516c0.168,-0.192 2.494,-2.855 2.83,-1.465c0.369,1.527 -5.518,7.39 -6.086,7.955c-1.992,1.984 -5.975,4.371 -6.527,4.701Z" style="fill:#2a3443;"/><path d="M285.381,171.791c-7.378,0.745 -7.711,-0.159 -14.075,3.638c-4.497,2.683 -7.003,5.338 -8.959,8.185c-5.341,7.773 -0.409,-11.711 12.632,-16.438c12.738,-4.618 20.824,4.557 23.381,7.128c5.083,5.11 -2.317,-1.752 -12.978,-2.513Z" style="fill:#293443;"/><path d="M341.548,165.093c5.864,-0.69 13.424,-1.285 21.883,14.515c2.937,5.486 -1.665,0.38 -1.756,0.271c-10.451,-12.617 -23.939,-9.662 -28.227,-6.828c-5.721,3.781 0.261,-5.262 8.1,-7.957Z" style="fill:#293343;"/><path d="M252.508,135.444c5.694,-10.439 5.778,-10.492 6.561,-18.077c0.859,-8.316 7.768,-7.676 6.185,-3.696c-2.384,5.991 -0.434,6.578 -3.514,12.154c-9.856,17.839 -8.016,19.988 -10.865,19.92c-3.976,-0.095 -1.331,-4.141 1.633,-10.301Z" style="fill:#efead7;"/><path d="M209.574,351.688c-33.361,-6.338 -38.81,-27.146 -37.412,-27.986c0.792,-0.476 4.785,12.342 22.562,20.709c18.851,8.872 28.215,3.814 28.981,4.27c0.993,0.591 0.867,4.375 -14.131,3.007Z" style="fill:#f2eedc;"/><path d="M136.925,409.821c25.58,21.71 53.896,11.247 38.818,15.528c-11.829,3.358 -41.867,-6.298 -49.098,-26.777c-0.04,-0.113 -0.122,-3.093 1.47,-0.268c4.316,7.659 6.668,9.335 8.811,11.517Z" style="fill:#ece9d9;"/><path d="M213.394,145.125c-0.381,3.389 -3.888,2.535 -11.969,3.372c-9.313,0.965 -10.652,1.304 -10.863,0.476c-1.991,-7.829 2.741,-5.679 10.783,-6.456c0.835,-0.081 9.876,-0.953 10.457,-0.8c1.772,0.47 1.567,3.256 1.592,3.406Z" style="fill:#243245;"/><path d="M350.753,246.27c6.076,9.34 -4.198,12.876 -5.537,7.648c-0.771,-3.012 -1.617,-2.338 -4.349,-3.779c-5.498,-2.9 1.724,-12.451 9.886,-3.869Z" style="fill:#eae3d0;"/><path d="M262.902,322.372c9.124,0.877 0.664,16.209 -6.001,8.731c-4.731,-5.308 2.604,-12.427 5.224,-9.861c0.327,0.32 0.45,0.81 0.777,1.13Z" style="fill:#cda457;"/><path d="M323.647,93.34c13.52,10.171 4.025,23.011 3.177,22.287c-0.196,-0.167 3.694,-11.669 -4.786,-18.388c-4.403,-3.489 -11.631,-1.987 -6.575,-4.462c3.498,-1.713 7.593,0.276 8.183,0.563Z" style="fill:#273242;"/><path d="M210.504,329.835c-9.547,3.916 -22.249,-10.161 -10.587,-8.652c4.915,0.636 13.442,5.21 10.587,8.652Z" style="fill:#dbd7cc;"/><path d="M215.614,135.061c-3.96,0.061 -5.713,1.31 -5.892,-2.689c-0.098,-2.191 -1.582,-4.697 2.919,-4.958c0.967,-0.056 7.818,-0.798 8.002,1.99c0.027,0.418 0.318,4.833 -0.525,5.204c-0.331,0.146 -0.332,0.033 -4.503,0.452Z" style="fill:#ece8d7;"/><path d="M143.773,384.2c-0.643,-0.616 -4.959,-4.749 -6.646,-8.925c-0.098,-0.242 -2.995,-11.569 2.289,-2.323c5.917,10.353 12.962,13.796 13.205,14.425c1.835,4.753 -8.244,-2.729 -8.848,-3.177Z" style="fill:#263245;"/><path d="M156.369,374.634c2.21,1.845 3.611,2.052 2.198,2.863c-3.182,1.827 -18.76,-9.248 -17.409,-15.7c0.906,-4.325 1.714,3.684 13.494,11.649c0.138,0.094 0.127,0.088 1.716,1.188Z" style="fill:#293544;"/><path d="M135.467,388.818c-0.407,-0.776 -3.473,-6.63 -3.256,-10.46c0.289,-5.126 2.533,1.217 2.613,1.442c3.709,10.483 11.073,15.866 11.169,16.556c0.142,1.026 -2.295,3.158 -10.525,-7.538Z" style="fill:#243145;"/><path d="M208.896,328.136c-6.948,3.102 -16.684,-7.146 -7.537,-5.171c2.434,0.525 4.829,1.987 5.217,2.223c2.8,1.708 2.302,2.914 2.32,2.948Z" style="fill:#2c394a;"/><path d="M198.982,333.642c-0.447,-0.273 -4.428,-2.699 -5.21,-3.963c-1.245,-2.012 0.215,-2.106 0.893,-1.637c5.094,3.523 5.081,3.62 11.285,5.099c0.177,0.042 2.689,0.641 1.447,1.757c-1.882,1.691 -7.794,-0.976 -8.414,-1.256Z" style="fill:#f3f0e1;"/><path d="M139.083,408.705c-9.252,-7.222 -13.221,-22.317 -7.723,-12.175c4.58,8.448 7.013,8.23 9.3,12.603c-0.526,-0.143 -1.051,-0.285 -1.577,-0.428Z" style="fill:#916b32;"/><path d="M261.576,323.097c-0.314,0.316 -3.608,3.632 -0.771,5.507c0.158,0.104 3.049,2.014 0.53,2.309c-6.623,0.777 -3.38,-10.318 -0.72,-8.884c0.421,0.227 0.539,0.841 0.96,1.068Z" style="fill:#2d3850;"/><path d="M206.192,131.62c-0.158,3.553 0.725,4.924 -1.043,4.283c-1.857,-0.674 -1.357,-9.756 0.718,-7.271c0.154,0.185 0.024,0.218 0.325,2.989Z" style="fill:#eeebdb;"/><path d="M200.853,132.361c0.006,0.315 0.102,5.707 -1.546,3.618c-1.284,-1.628 0.453,-13.158 1.546,-3.618Z" style="fill:#e1e0d3;"/><path d="M195.765,133.141c0.011,0.3 0.201,5.575 -1.533,3.426c-1.212,-1.502 -0.1,-9.72 1.244,-6.511c0.096,0.229 0.021,0.229 0.289,3.085Z" style="fill:#eeecde;"/><path d="M139.083,408.705c0.526,0.143 1.051,0.285 1.577,0.428c-0.102,0.958 0.862,1.539 -0.158,1.492c-0.191,-0.009 -0.102,-0.138 -1.419,-1.92Z" style="fill:#3b3c3a;"/></g></svg>